# xmcd
#
# Track frame offsets: 
#        150
#        11475
#        22007
#        32630
#        41200
#        52595
#        63407
#        73017
#        82812
#        93670
#        104145
#        114415
#        126407
#        139400
#        151245
#        161910
#
# Disc length: 2298 seconds
#
# Revision: 2
# Processed by: cddbd v1.5.2PL0 Copyright (c) Steve Scherf et al.
# Submitted via: ExactAudioCopy v1.0b6
#
DISCID=dc08f810
DTITLE=Marty Robbins - The Story Of My Life
DYEAR=1991
DGENRE=Country
TTITLE0=A White Sport Coat (And A Pink Carnation) (1957)
TTITLE1=Grown-Up Tears (1957)
TTITLE2=Please Don´t Blame Me (1957)
TTITLE3=Teen-Age Dream (1957)
TTITLE4=The Story Of My Life (1957)
TTITLE5=Once-A-Week Date (1957)
TTITLE6=Just Married (1957)
TTITLE7=Stairway Of Love (1958)
TTITLE8=She Was Only Seventeen (And He Was One Year More) (1958)
TTITLE9=Sittin´ In A Tree House (1958)
TTITLE10=Ain´t I The Lucky One (1958)
TTITLE11=The Last Time I Saw My Heart (1958)
TTITLE12=The Hanging Tree (1958)
TTITLE13=The Blues Country Style (1958)
TTITLE14=Jeannie And Johnnie (1982)
TTITLE15=Foolish Decision (1991)
EXTD=
EXTT0=Yesterday: 04.12.1998
EXTT1=
EXTT2=
EXTT3=
EXTT4=
EXTT5=
EXTT6=
EXTT7=
EXTT8=
EXTT9=
EXTT10=Yesterday: 05.02.1999
EXTT11=
EXTT12=
EXTT13=
EXTT14=
EXTT15=
PLAYORDER=
